<svg width="40" height="40" viewBox="0 0 40 40" fill="none" xmlns="http://www.w3.org/2000/svg">
<path d="M20 0C8.955 0 0 8.955 0 20C0 31.045 8.955 40 20 40C31.045 40 40 31.045 40 20C40 8.955 31.045 0 20 0ZM30.6017 26.6117L27.4883 26.655C27.4883 26.655 26.8167 26.7867 25.9383 26.18C24.7733 25.38 23.675 23.2983 22.8183 23.5683C21.95 23.845 21.9767 25.7183 21.9767 25.7183C21.9767 25.7183 21.9833 26.0483 21.785 26.2633C21.57 26.495 21.1483 26.4717 21.1483 26.4717H19.7533C19.7533 26.4717 16.6767 26.7267 13.965 23.9C11.0117 20.8183 8.40167 14.7367 8.40167 14.7367C8.40167 14.7367 8.24833 14.3533 8.41167 14.1567C8.59667 13.94 9.095 13.9333 9.095 13.9333L12.4283 13.9167C12.4283 13.9167 12.7417 13.9717 12.9683 14.1383C13.1533 14.275 13.2583 14.5317 13.2583 14.5317C13.2583 14.5317 13.7967 15.8967 14.5117 17.1333C15.905 19.5433 16.5517 20.0717 17.025 19.8133C17.715 19.4367 17.5083 16.4067 17.5083 16.4067C17.5083 16.4067 17.5217 15.3067 17.1617 14.8167C16.8817 14.435 16.355 14.3217 16.125 14.2933C15.9367 14.2683 16.2433 13.8317 16.6433 13.635C17.2433 13.3417 18.3033 13.325 19.555 13.3367C20.53 13.3467 20.8117 13.4067 21.1917 13.5C22.3417 13.7783 21.9517 14.8517 21.9517 17.4267C21.9517 18.2517 21.8033 19.4117 22.3967 19.7933C22.6533 19.9583 23.2783 19.8183 24.8367 17.1617C25.5783 15.9017 26.1333 14.4217 26.1333 14.4217C26.1333 14.4217 26.255 14.1583 26.4433 14.045C26.6367 13.9283 26.8967 13.965 26.8967 13.965L30.405 13.9433C30.405 13.9433 31.4583 13.8167 31.63 14.295C31.81 14.795 31.2367 15.9633 29.8033 17.875C27.45 21.015 27.1883 20.7233 29.1433 22.54C31.01 24.275 31.395 25.1183 31.46 25.225C32.2317 26.51 30.6017 26.6117 30.6017 26.6117Z" fill="white"/>
</svg>
